<?xml version="1.0" standalone="no"?>
<!DOCTYPE svg PUBLIC "-//W3C//DTD SVG 20010904//EN"
 "http://www.w3.org/TR/2001/REC-SVG-20010904/DTD/svg10.dtd">
<svg version="1.0" xmlns="http://www.w3.org/2000/svg"
 width="1920.000000pt" height="1080.000000pt" viewBox="0 0 1920.000000 1080.000000"
 preserveAspectRatio="xMidYMid meet">

<g transform="translate(0.000000,1080.000000) scale(0.100000,-0.100000)"
fill="#000000" stroke="none">
<path d="M7615 9539 c-1070 -116 -2169 -1032 -2870 -2392 -132 -255 -362 -763
-351 -774 6 -6 254 122 346 179 l65 40 64 136 c469 998 1134 1772 1876 2184
217 121 442 206 673 255 114 24 148 27 332 27 175 0 220 -3 307 -22 471 -103
830 -406 1064 -897 125 -263 202 -554 245 -920 25 -206 25 -713 1 -940 -86
-807 -304 -1542 -684 -2305 -309 -622 -637 -1093 -1043 -1500 -465 -466 -934
-742 -1405 -826 -137 -24 -388 -24 -509 0 -483 95 -865 414 -1116 931 -90 185
-142 331 -199 555 l-46 185 -78 -3 c-42 -2 -107 1 -143 6 l-66 9 6 -45 c20
-149 111 -481 181 -666 152 -401 340 -695 607 -952 277 -264 584 -421 963
-490 154 -28 468 -26 640 5 1101 195 2187 1193 2851 2619 321 690 521 1426
590 2173 23 241 22 708 0 934 -138 1385 -806 2304 -1796 2476 -135 23 -376 32
-505 18z"/>
<path d="M15843 6335 c-206 -46 -330 -230 -295 -436 16 -93 49 -156 116 -217
82 -74 145 -97 276 -97 95 0 111 3 168 29 121 56 204 176 219 317 l6 59 -207
0 -206 0 0 -65 0 -65 97 0 97 0 -34 -35 c-42 -44 -87 -58 -160 -53 -106 8
-164 74 -165 188 0 88 30 140 99 175 80 40 155 28 219 -36 l39 -39 104 0 c116
0 115 -1 84 68 -73 160 -269 250 -457 207z"/>
<path d="M16687 6340 c-112 -29 -202 -102 -254 -208 -36 -71 -38 -82 -38 -166
0 -81 3 -98 32 -158 52 -110 139 -183 258 -214 179 -48 367 42 448 214 29 60
32 77 32 158 0 84 -2 95 -38 166 -44 89 -92 136 -185 180 -69 33 -184 46 -255
28z m164 -161 c91 -28 153 -114 153 -214 0 -96 -44 -163 -134 -204 -148 -67
-314 40 -314 204 0 155 143 259 295 214z"/>
<path d="M13100 6240 l0 -90 100 0 100 0 0 -275 0 -275 105 0 105 0 0 275 0
275 100 0 100 0 0 90 0 90 -305 0 -305 0 0 -90z"/>
<path d="M13936 6296 c-44 -104 -276 -686 -276 -690 0 -4 49 -6 108 -6 l108 0
21 58 20 57 130 3 130 3 22 -61 22 -60 229 0 229 0 58 105 c32 58 61 105 65
105 4 0 32 -47 63 -105 l57 -105 114 0 c63 0 114 3 113 8 0 4 -49 88 -108 186
l-108 179 104 174 c56 96 103 177 103 179 0 2 -51 4 -112 4 l-113 0 -54 -100
c-30 -55 -57 -100 -60 -100 -3 0 -30 45 -59 100 l-53 100 -115 0 c-63 0 -114
-2 -114 -5 0 -3 46 -80 102 -172 56 -92 101 -171 101 -177 0 -9 -193 -344
-210 -366 -7 -8 -19 19 -163 371 l-143 349 -98 0 -99 0 -14 -34z m158 -319
c20 -53 36 -100 36 -102 0 -3 -36 -5 -80 -5 -44 0 -80 3 -80 8 0 20 75 211 81
204 4 -4 23 -51 43 -105z"/>
<path d="M15230 5965 l0 -365 100 0 100 0 0 365 0 365 -100 0 -100 0 0 -365z"/>
<path d="M16669 5472 c57 -67 107 -122 111 -122 4 0 54 55 111 122 57 67 95
118 84 114 -81 -34 -107 -39 -195 -39 -88 0 -114 5 -195 39 -11 4 27 -47 84
-114z"/>
<path d="M4128 5365 c-228 -43 -437 -180 -569 -371 -47 -68 -107 -201 -130
-289 -31 -114 -31 -336 0 -450 85 -319 325 -561 640 -647 60 -17 105 -21 216
-21 111 0 156 4 216 21 258 70 459 237 575 477 69 142 87 224 87 395 0 171
-18 253 -87 395 -116 241 -321 410 -575 476 -101 27 -273 33 -373 14z m348
-469 c99 -50 171 -121 221 -222 37 -77 38 -80 38 -194 0 -114 -1 -117 -38
-194 -176 -356 -658 -356 -834 1 -37 76 -38 79 -38 193 0 114 1 117 38 194 46
93 118 168 203 213 84 45 123 53 236 49 90 -3 104 -6 174 -40z"/>
<path d="M11206 5354 c-194 -38 -345 -121 -478 -263 -281 -297 -314 -793 -78
-1141 50 -74 183 -199 256 -241 167 -97 270 -124 484 -124 142 0 176 3 244 23
239 69 420 220 527 437 38 80 89 235 89 278 0 4 -108 7 -240 7 -220 0 -241 -1
-246 -17 -81 -249 -333 -360 -558 -246 -217 110 -294 447 -152 672 107 169
322 234 502 150 65 -31 154 -120 188 -191 l28 -58 234 0 234 0 0 24 c0 43 -50
188 -91 265 -124 231 -337 383 -603 430 -81 15 -256 12 -340 -5z"/>
<path d="M16200 5359 c-156 -21 -309 -93 -386 -183 -79 -92 -114 -196 -114
-343 0 -159 37 -251 137 -345 81 -75 197 -125 431 -183 56 -14 127 -35 157
-46 185 -69 134 -259 -70 -259 -110 0 -176 49 -191 143 l-7 37 -238 0 -239 0
0 -56 c0 -120 57 -260 143 -351 90 -95 219 -157 382 -184 105 -17 308 -7 403
21 273 77 422 265 422 530 0 156 -43 264 -142 356 -89 82 -191 125 -498 209
-163 45 -214 80 -212 146 2 66 62 109 154 109 79 -1 134 -29 158 -82 11 -24
20 -51 20 -60 0 -17 18 -18 235 -18 l235 0 0 38 c0 20 -7 69 -15 107 -43 204
-180 339 -400 395 -93 24 -262 32 -365 19z"/>
<path d="M12889 5303 c-6 -16 -154 -397 -330 -849 -175 -452 -319 -824 -319
-828 0 -3 113 -5 251 -4 l252 3 46 135 46 135 294 0 293 0 48 -135 47 -135
256 -3 c142 -1 257 1 257 5 0 4 -151 389 -337 855 l-336 848 -229 0 -228 0
-11 -27z m334 -788 l84 -240 -175 -3 c-96 -1 -176 -1 -178 1 -2 1 36 114 83
250 48 136 90 244 94 240 4 -5 45 -116 92 -248z"/>
<path d="M14190 4475 l0 -855 433 0 c477 0 505 3 626 63 81 39 178 133 215
204 55 110 68 215 41 332 -27 113 -99 215 -195 276 l-41 26 40 32 c53 43 98
101 130 167 23 49 26 68 26 165 0 103 -2 114 -31 176 -41 86 -114 158 -207
204 -118 58 -177 64 -634 65 l-403 0 0 -855z m790 440 c63 -60 60 -156 -5
-214 l-36 -31 -149 0 -150 0 0 141 0 140 154 -3 155 -3 31 -30z m-17 -619 c56
-24 80 -59 85 -124 3 -47 0 -63 -20 -91 -42 -62 -74 -71 -240 -71 l-148 0 0
150 0 150 145 0 c101 0 156 -4 178 -14z"/>
</g>
</svg>
